<svg width="223" height="178" viewBox="0 0 223 178" fill="none" xmlns="http://www.w3.org/2000/svg">
<g filter="url(#filter0_d_1_528)">
<path d="M87.657 117.179V116.733C87.657 116.328 87.9842 116 88.3878 116C88.7914 116 89.1185 116.328 89.1185 116.733V117.179C89.1185 117.584 88.7914 117.912 88.3878 117.912C87.9842 117.912 87.657 117.584 87.657 117.179ZM80.5902 119.47C80.7256 119.706 80.9712 119.837 81.2239 119.837C81.3478 119.837 81.4734 119.806 81.5884 119.739C81.938 119.537 82.0579 119.089 81.8562 118.738L81.634 118.352C81.4322 118.001 80.9853 117.881 80.6359 118.083C80.2863 118.285 80.1664 118.733 80.368 119.084L80.5902 119.47ZM95.1869 119.739C95.3019 119.806 95.4275 119.837 95.5515 119.837C95.804 119.837 96.0497 119.706 96.1851 119.471L96.4074 119.084C96.6092 118.734 96.4894 118.286 96.1399 118.083C95.7905 117.881 95.3436 118.001 95.1417 118.352L94.9193 118.738C94.7176 119.088 94.8373 119.537 95.1869 119.739ZM100.798 125.097C100.922 125.097 101.047 125.066 101.162 124.999L101.548 124.776C101.897 124.574 102.017 124.125 101.815 123.775C101.613 123.424 101.166 123.304 100.817 123.507L100.432 123.73C100.082 123.932 99.9624 124.38 100.164 124.731C100.3 124.966 100.545 125.097 100.798 125.097ZM102.697 138.095C101.748 139.981 99.0967 141.248 96.0989 141.248C94.0439 141.248 92.1189 140.654 90.8102 139.636C90.0605 140.151 89.269 140.483 88.4849 140.584C88.4492 140.589 88.4133 140.591 88.3788 140.59C88.3495 140.59 88.3201 140.588 88.2907 140.584C87.5065 140.483 86.715 140.151 85.9654 139.636C84.6567 140.654 82.7318 141.248 80.6766 141.248C77.6789 141.248 75.0273 139.981 74.0783 138.095C73.9739 137.887 73.9738 137.642 74.0783 137.435C74.7785 136.043 76.3795 134.987 78.4056 134.53C77.3543 133.032 76.9704 131.263 77.4465 129.749C77.5048 129.564 77.6341 129.409 77.8058 129.32C79.0065 128.692 80.5293 128.647 82.0116 129.168C82.2317 128.437 82.5779 127.8 83.0472 127.305C83.2077 127.135 83.4395 127.052 83.6707 127.082C84.054 127.132 84.4389 127.236 84.82 127.391C85.5932 125.752 86.7328 124.53 88.0828 123.908C88.2762 123.819 88.4988 123.819 88.6923 123.908C90.0419 124.529 91.1811 125.751 91.9545 127.388C92.3356 127.236 92.7209 127.132 93.1049 127.082C93.3363 127.052 93.5679 127.135 93.7284 127.305C94.1977 127.8 94.5438 128.437 94.7639 129.168C96.2464 128.647 97.769 128.692 98.9696 129.319C99.1413 129.409 99.2706 129.564 99.3289 129.749C99.8052 131.263 99.4213 133.032 98.3699 134.53C100.396 134.987 101.997 136.043 102.697 137.435C102.802 137.642 102.802 137.887 102.697 138.095ZM93.8493 136.016C94.6428 135.818 95.4311 135.411 96.1255 134.827C97.5438 133.633 98.2866 131.896 98.0115 130.491C97.1531 130.157 96.0825 130.209 95.0275 130.633C95.1288 132.002 94.8828 133.55 94.275 135.073C94.1458 135.397 94.0033 135.712 93.8493 136.016ZM86.1014 128.105C86.9433 128.706 87.7285 129.538 88.3862 130.533C89.0473 129.527 89.8317 128.696 90.6715 128.099C90.1087 126.879 89.3031 125.925 88.3877 125.398C87.4708 125.926 86.6642 126.882 86.1014 128.105ZM80.6498 134.827C81.3441 135.411 82.1327 135.818 82.9264 136.016C82.7722 135.712 82.6299 135.397 82.5006 135.073C81.8928 133.55 81.6468 132.002 81.7481 130.633C80.693 130.209 79.6224 130.157 78.7639 130.491C78.4888 131.896 79.2316 133.633 80.6498 134.827ZM84.8109 138.664C84.4962 138.347 84.1957 137.996 83.9139 137.617C82.4658 137.593 80.9551 136.997 79.7103 135.95C79.658 135.906 79.6065 135.861 79.5557 135.816C77.7758 136.037 76.2841 136.773 75.5823 137.765C76.4356 138.968 78.4529 139.783 80.6765 139.783C82.2551 139.783 83.765 139.365 84.8109 138.664ZM88.1038 133.138C87.3755 131.313 86.1579 129.808 84.8781 129.048C84.8424 129.031 84.8086 129.011 84.7768 128.99C84.474 128.819 84.1685 128.692 83.8654 128.612C83.5625 129.046 83.3597 129.602 83.2588 130.235C83.2562 130.274 83.2505 130.312 83.2416 130.35C83.073 131.573 83.2742 133.067 83.8573 134.529C84.4459 136.004 85.3539 137.27 86.3562 138.102C86.3796 138.119 86.4022 138.138 86.4239 138.158C86.967 138.596 87.536 138.907 88.0956 139.055C88.9938 137.768 89.0117 135.414 88.1038 133.138ZM92.9181 134.528C93.501 133.067 93.7022 131.574 93.534 130.352C93.5248 130.312 93.519 130.273 93.5164 130.233C93.4155 129.601 93.2126 129.045 92.9099 128.611C92.6114 128.69 92.31 128.815 92.0107 128.981C91.9712 129.01 91.9281 129.034 91.8821 129.055C90.8881 129.648 89.9287 130.691 89.2065 132.005C89.296 132.197 89.3808 132.394 89.4606 132.594C90.2892 134.671 90.4455 136.794 89.9657 138.445C90.0961 138.356 90.2256 138.259 90.3536 138.156C90.3739 138.137 90.395 138.12 90.4168 138.104C91.42 137.272 92.3291 136.005 92.9181 134.528ZM101.193 137.765C100.491 136.773 98.9995 136.037 97.2195 135.816C97.1688 135.861 97.1172 135.906 97.0649 135.95C95.8201 136.997 94.3095 137.592 92.8615 137.617C92.5798 137.996 92.2792 138.347 91.9645 138.664C93.0105 139.365 94.5205 139.783 96.0989 139.783C98.3224 139.783 100.34 138.968 101.193 137.765ZM95.4717 143.185C95.1674 142.919 94.7058 142.951 94.4407 143.256C93.9799 143.787 91.7973 144.534 88.3878 144.534C84.9782 144.534 82.7955 143.787 82.3348 143.256C82.0697 142.951 81.6081 142.919 81.3038 143.185C80.9995 143.451 80.9676 143.914 81.2327 144.219C82.3744 145.534 85.8006 146 88.3879 146C90.975 146 94.4012 145.534 95.5429 144.219C95.8078 143.914 95.776 143.451 95.4717 143.185ZM78.7815 127.678C79.1697 127.788 79.5735 127.561 79.683 127.172C80.7754 123.283 84.3549 120.567 88.3878 120.567C92.4207 120.567 96.0002 123.283 97.0926 127.172C97.1833 127.495 97.4765 127.706 97.7955 127.706C97.8611 127.706 97.9279 127.697 97.9941 127.678C98.3826 127.568 98.6087 127.164 98.4992 126.774C97.2302 122.257 93.0722 119.102 88.3878 119.102C83.7033 119.102 79.5453 122.257 78.2763 126.774C78.1669 127.164 78.393 127.568 78.7815 127.678ZM88.3878 143.537C89.0156 143.537 91.1222 143.47 91.872 142.606C92.137 142.301 92.1051 141.838 91.8007 141.572C91.4979 141.307 91.0394 141.338 90.7739 141.639C90.6072 141.791 89.7422 142.071 88.3878 142.071C87.033 142.071 86.1679 141.791 86.0014 141.639C85.7357 141.338 85.2774 141.307 84.9746 141.572C84.6702 141.838 84.6384 142.301 84.9035 142.606C85.6535 143.47 87.7601 143.537 88.3878 143.537ZM75.2278 124.776L75.6127 124.999C75.7279 125.066 75.8536 125.097 75.9777 125.097C76.2301 125.097 76.4757 124.966 76.6111 124.731C76.813 124.381 76.6934 123.932 76.344 123.73L75.959 123.507C75.6098 123.304 75.1626 123.424 74.9608 123.775C74.7588 124.125 74.8784 124.573 75.2278 124.776Z" fill="white"/>
</g>
<defs>
<filter id="filter0_d_1_528" x="-46" y="0" width="268.776" height="270" filterUnits="userSpaceOnUse" color-interpolation-filters="sRGB">
<feFlood flood-opacity="0" result="BackgroundImageFix"/>
<feColorMatrix in="SourceAlpha" type="matrix" values="0 0 0 0 0 0 0 0 0 0 0 0 0 0 0 0 0 0 127 0" result="hardAlpha"/>
<feOffset dy="4"/>
<feGaussianBlur stdDeviation="60"/>
<feColorMatrix type="matrix" values="0 0 0 0 1 0 0 0 0 1 0 0 0 0 1 0 0 0 1 0"/>
<feBlend mode="normal" in2="BackgroundImageFix" result="effect1_dropShadow_1_528"/>
<feBlend mode="normal" in="SourceGraphic" in2="effect1_dropShadow_1_528" result="shape"/>
</filter>
</defs>
</svg>
