<svg width="18" height="22" viewBox="0 0 18 22" fill="none" xmlns="http://www.w3.org/2000/svg">
<path d="M8.88529 10.9424C11.6308 10.9424 13.8565 8.71675 13.8565 5.97123C13.8565 3.22571 11.6308 1.00003 8.88529 1.00003C6.13978 1.00003 3.91409 3.22571 3.91409 5.97123C3.91409 8.71675 6.13978 10.9424 8.88529 10.9424Z" stroke="white" stroke-width="1.5" stroke-linecap="round" stroke-linejoin="round"/>
<path fill-rule="evenodd" clip-rule="evenodd" d="M1.00008 17.8564C0.998759 17.507 1.07692 17.1618 1.22866 16.847C1.70483 15.8946 3.04763 15.3899 4.16188 15.1613C4.96547 14.9898 5.78016 14.8753 6.59987 14.8185C8.11753 14.6852 9.64395 14.6852 11.1616 14.8185C11.9813 14.8759 12.7959 14.9905 13.5996 15.1613C14.7138 15.3899 16.0566 15.847 16.5328 16.847C16.838 17.4887 16.838 18.2337 16.5328 18.8755C16.0566 19.8754 14.7138 20.3325 13.5996 20.5516C12.7969 20.7302 11.982 20.848 11.1616 20.9039C9.92636 21.0087 8.68534 21.0278 7.44746 20.9611C7.16176 20.9611 6.88558 20.9611 6.59987 20.9039C5.78258 20.8486 4.97071 20.7308 4.1714 20.5516C3.04763 20.3325 1.71435 19.8754 1.22866 18.8755C1.07769 18.557 0.999611 18.2089 1.00008 17.8564Z" stroke="white" stroke-width="1.5" stroke-linecap="round" stroke-linejoin="round"/>
</svg>
